<?xml version="1.0" encoding="UTF-8" standalone="no"?>
<!-- Created with Inkscape (http://www.inkscape.org/) -->

<svg
   xmlns:dc="http://purl.org/dc/elements/1.1/"
   xmlns:cc="http://creativecommons.org/ns#"
   xmlns:rdf="http://www.w3.org/1999/02/22-rdf-syntax-ns#"
   xmlns:svg="http://www.w3.org/2000/svg"
   xmlns="http://www.w3.org/2000/svg"
   xmlns:sodipodi="http://sodipodi.sourceforge.net/DTD/sodipodi-0.dtd"
   xmlns:inkscape="http://www.inkscape.org/namespaces/inkscape"
   width="101.6mm"
   height="128.5mm"
   viewBox="0 0 101.6 128.5"
   version="1.1"
   id="svg8"
   inkscape:version="0.92.3 (2405546, 2018-03-11)"
   sodipodi:docname="Duetto.svg">
  <defs
     id="defs2" />
  <sodipodi:namedview
     id="base"
     pagecolor="#ffffff"
     bordercolor="#666666"
     borderopacity="1.0"
     inkscape:pageopacity="0.0"
     inkscape:pageshadow="2"
     inkscape:zoom="2.8"
     inkscape:cx="177.77962"
     inkscape:cy="213.66625"
     inkscape:document-units="mm"
     inkscape:current-layer="layer2"
     showgrid="false"
     inkscape:window-width="1920"
     inkscape:window-height="1015"
     inkscape:window-x="0"
     inkscape:window-y="424"
     inkscape:window-maximized="1"
     inkscape:snap-global="true"
     inkscape:snap-bbox="true"
     inkscape:bbox-paths="true"
     inkscape:bbox-nodes="true"
     inkscape:snap-page="true" />
  <metadata
     id="metadata5">
    <rdf:RDF>
      <cc:Work
         rdf:about="">
        <dc:format>image/svg+xml</dc:format>
        <dc:type
           rdf:resource="http://purl.org/dc/dcmitype/StillImage" />
        <dc:title></dc:title>
      </cc:Work>
    </rdf:RDF>
  </metadata>
  <g
     inkscape:label="Layer 1"
     inkscape:groupmode="layer"
     id="layer1"
     transform="translate(0,-168.5)">
    <rect
       style="opacity:1;vector-effect:none;fill:#e6e7e1;fill-opacity:1;stroke:#272729;stroke-width:0.203;stroke-linecap:butt;stroke-linejoin:miter;stroke-miterlimit:4;stroke-dasharray:none;stroke-dashoffset:0;stroke-opacity:1"
       id="rect4756"
       width="101.48038"
       height="128.5"
       x="0.11962257"
       y="168.5"
       ry="0" />
    <rect
       style="opacity:1;vector-effect:none;fill:#e6e6e6;fill-opacity:1;stroke:#4d4d4d;stroke-width:0.31166908;stroke-linecap:butt;stroke-linejoin:miter;stroke-miterlimit:4;stroke-dasharray:none;stroke-dashoffset:0;stroke-opacity:1"
       id="rect815-72-0"
       width="67.483292"
       height="25.961473"
       x="6.7671137"
       y="261.96799"
       ry="2.1111851" />
    <rect
       style="opacity:1;vector-effect:none;fill:#333333;fill-opacity:1;stroke:#4d4d4d;stroke-width:0.50270832;stroke-linecap:butt;stroke-linejoin:miter;stroke-miterlimit:4;stroke-dasharray:none;stroke-dashoffset:0;stroke-opacity:1"
       id="rect4623"
       width="11.717261"
       height="16.630953"
       x="82.398804"
       y="216.86905"
       ry="2.1381559" />
    <g
       aria-label="OUT"
       style="font-style:normal;font-variant:normal;font-weight:normal;font-stretch:normal;font-size:3.60750556px;line-height:1.25;font-family:FreeSans;-inkscape-font-specification:'FreeSans, Normal';font-variant-ligatures:normal;font-variant-caps:normal;font-variant-numeric:normal;font-feature-settings:normal;text-align:start;letter-spacing:0px;word-spacing:0px;writing-mode:lr-tb;text-anchor:start;fill:#ffffff;fill-opacity:1;stroke:none;stroke-width:0.09018844"
       id="text4627">
      <path
         d="m 87.070733,219.8521 q 0,0.58442 -0.34632,0.97042 -0.346321,0.386 -0.923522,0.386 -0.569985,0 -0.919913,-0.37879 -0.349929,-0.38239 -0.349929,-0.99928 0,-0.61688 0.349929,-0.99567 0.349928,-0.38239 0.916306,-0.38239 0.577201,0 0.923521,0.38239 0.349928,0.3824 0.349928,1.01732 z m -1.273449,-1.1039 q -0.418471,0 -0.674604,0.29943 -0.256132,0.29581 -0.256132,0.78282 0,0.48702 0.256132,0.78644 0.259741,0.29582 0.678211,0.29582 0.418471,0 0.674604,-0.29582 0.25974,-0.29581 0.25974,-0.77201 0,-0.49783 -0.256133,-0.79725 -0.256132,-0.29943 -0.681818,-0.29943 z"
         style="font-style:normal;font-variant:normal;font-weight:normal;font-stretch:normal;font-size:3.60750556px;font-family:FreeSans;-inkscape-font-specification:'FreeSans, Normal';font-variant-ligatures:normal;font-variant-caps:normal;font-variant-numeric:normal;font-feature-settings:normal;text-align:start;writing-mode:lr-tb;text-anchor:start;fill:#ffffff;stroke-width:0.09018844"
         id="path4662"
         inkscape:connector-curvature="0" />
      <path
         d="m 89.185464,218.49568 h 0.335498 v 1.84704 q 0,0.39683 -0.277777,0.63131 -0.274171,0.23449 -0.735932,0.23449 -0.468975,0 -0.739538,-0.23088 -0.266956,-0.23449 -0.266956,-0.63492 v -1.84704 h 0.335498 v 1.84704 q 0,0.28499 0.180376,0.42929 0.183982,0.1407 0.49062,0.1407 0.317461,0 0.497836,-0.15152 0.180375,-0.15151 0.180375,-0.41847 z"
         style="font-style:normal;font-variant:normal;font-weight:normal;font-stretch:normal;font-size:3.60750556px;font-family:FreeSans;-inkscape-font-specification:'FreeSans, Normal';font-variant-ligatures:normal;font-variant-caps:normal;font-variant-numeric:normal;font-feature-settings:normal;text-align:start;writing-mode:lr-tb;text-anchor:start;fill:#ffffff;stroke-width:0.09018844"
         id="path4664"
         inkscape:connector-curvature="0" />
      <path
         d="m 91.121624,218.79149 v 2.33406 h -0.335498 v -2.33406 h -0.865801 v -0.29581 h 2.063493 v 0.29581 z"
         style="font-style:normal;font-variant:normal;font-weight:normal;font-stretch:normal;font-size:3.60750556px;font-family:FreeSans;-inkscape-font-specification:'FreeSans, Normal';font-variant-ligatures:normal;font-variant-caps:normal;font-variant-numeric:normal;font-feature-settings:normal;text-align:start;writing-mode:lr-tb;text-anchor:start;fill:#ffffff;stroke-width:0.09018844"
         id="path4666"
         inkscape:connector-curvature="0" />
    </g>
    <g
       aria-label="NOTES"
       style="font-style:normal;font-variant:normal;font-weight:normal;font-stretch:normal;font-size:3.60750556px;line-height:1.25;font-family:FreeSans;-inkscape-font-specification:'FreeSans, Normal';font-variant-ligatures:normal;font-variant-caps:normal;font-variant-numeric:normal;font-feature-settings:normal;text-align:start;letter-spacing:0px;word-spacing:0px;writing-mode:lr-tb;text-anchor:start;fill:#000000;fill-opacity:1;stroke:none;stroke-width:0.09018845"
       id="text4627-4"
       transform="matrix(1.4436395,0,-0.44391242,1.7686228,56.166336,-184.27662)">
      <path
         d="m 46.867282,249.7033 v 2.62988 h -0.378788 l -1.360029,-2.13204 v 2.13204 h -0.317461 v -2.62988 h 0.364358 l 1.37446,2.15008 v -2.15008 z"
         style="font-style:normal;font-variant:normal;font-weight:normal;font-stretch:normal;font-size:3.60750556px;font-family:FreeSans;-inkscape-font-specification:'FreeSans, Normal';font-variant-ligatures:normal;font-variant-caps:normal;font-variant-numeric:normal;font-feature-settings:normal;text-align:start;writing-mode:lr-tb;text-anchor:start;fill:#000000;fill-opacity:1;stroke-width:0.09018845"
         id="path4651"
         inkscape:connector-curvature="0" />
      <path
         d="m 49.841558,251.05973 q 0,0.58441 -0.346321,0.97042 -0.34632,0.386 -0.923521,0.386 -0.569986,0 -0.919914,-0.37879 -0.349928,-0.3824 -0.349928,-0.99928 0,-0.61688 0.349928,-0.99567 0.349928,-0.3824 0.916306,-0.3824 0.577201,0 0.923522,0.3824 0.349928,0.3824 0.349928,1.01732 z m -1.27345,-1.1039 q -0.41847,0 -0.674603,0.29942 -0.256133,0.29582 -0.256133,0.78283 0,0.48701 0.256133,0.78644 0.25974,0.29581 0.678211,0.29581 0.418471,0 0.674603,-0.29581 0.259741,-0.29582 0.259741,-0.77201 0,-0.49783 -0.256133,-0.79726 -0.256133,-0.29942 -0.681819,-0.29942 z"
         style="font-style:normal;font-variant:normal;font-weight:normal;font-stretch:normal;font-size:3.60750556px;font-family:FreeSans;-inkscape-font-specification:'FreeSans, Normal';font-variant-ligatures:normal;font-variant-caps:normal;font-variant-numeric:normal;font-feature-settings:normal;text-align:start;writing-mode:lr-tb;text-anchor:start;fill:#000000;fill-opacity:1;stroke-width:0.09018845"
         id="path4653"
         inkscape:connector-curvature="0" />
      <path
         d="m 51.292508,249.99912 v 2.33406 H 50.95701 v -2.33406 h -0.865801 v -0.29582 h 2.063493 v 0.29582 z"
         style="font-style:normal;font-variant:normal;font-weight:normal;font-stretch:normal;font-size:3.60750556px;font-family:FreeSans;-inkscape-font-specification:'FreeSans, Normal';font-variant-ligatures:normal;font-variant-caps:normal;font-variant-numeric:normal;font-feature-settings:normal;text-align:start;writing-mode:lr-tb;text-anchor:start;fill:#000000;fill-opacity:1;stroke-width:0.09018845"
         id="path4655"
         inkscape:connector-curvature="0" />
      <path
         d="m 52.889956,251.13548 v 0.90188 h 1.551228 v 0.29582 h -1.886726 v -2.62988 h 1.82179 v 0.29582 h -1.486292 v 0.84055 h 1.43218 v 0.29581 z"
         style="font-style:normal;font-variant:normal;font-weight:normal;font-stretch:normal;font-size:3.60750556px;font-family:FreeSans;-inkscape-font-specification:'FreeSans, Normal';font-variant-ligatures:normal;font-variant-caps:normal;font-variant-numeric:normal;font-feature-settings:normal;text-align:start;writing-mode:lr-tb;text-anchor:start;fill:#000000;fill-opacity:1;stroke-width:0.09018845"
         id="path4657"
         inkscape:connector-curvature="0" />
      <path
         d="m 55.7825,252.12033 q 0.20202,0 0.342713,-0.0469 0.140692,-0.0469 0.205628,-0.12266 0.06854,-0.0758 0.0938,-0.14791 0.02886,-0.0758 0.02886,-0.15873 0,-0.29942 -0.483406,-0.42568 l -0.652959,-0.17316 q -0.515873,-0.13348 -0.515873,-0.61328 0,-0.35714 0.248918,-0.56277 0.252525,-0.20924 0.685426,-0.20924 0.454546,0 0.707071,0.21645 0.252526,0.21285 0.256133,0.59885 h -0.31746 q -0.0036,-0.25613 -0.173161,-0.39322 -0.169552,-0.14069 -0.483405,-0.14069 -0.266956,0 -0.429294,0.12265 -0.15873,0.12266 -0.15873,0.32107 0,0.15152 0.0974,0.2381 0.0974,0.0866 0.335498,0.15151 l 0.660173,0.17677 q 0.266956,0.0721 0.411256,0.24531 0.147908,0.17316 0.147908,0.41486 0,0.10462 -0.02886,0.20924 -0.02525,0.10101 -0.0974,0.21284 -0.07215,0.10823 -0.183983,0.1912 -0.111832,0.083 -0.299423,0.13709 -0.183983,0.0541 -0.41847,0.0541 -0.147908,0 -0.284993,-0.0252 -0.133478,-0.0216 -0.274171,-0.083 -0.140692,-0.0649 -0.241703,-0.16233 -0.10101,-0.10101 -0.169552,-0.26696 -0.06493,-0.16595 -0.06854,-0.3824 h 0.317461 v 0.018 q 0,0.11183 0.03247,0.20924 0.03607,0.0974 0.111833,0.1912 0.07937,0.0938 0.23088,0.15151 0.155123,0.0541 0.367966,0.0541 z"
         style="font-style:normal;font-variant:normal;font-weight:normal;font-stretch:normal;font-size:3.60750556px;font-family:FreeSans;-inkscape-font-specification:'FreeSans, Normal';font-variant-ligatures:normal;font-variant-caps:normal;font-variant-numeric:normal;font-feature-settings:normal;text-align:start;writing-mode:lr-tb;text-anchor:start;fill:#000000;fill-opacity:1;stroke-width:0.09018845"
         id="path4659"
         inkscape:connector-curvature="0" />
    </g>
    <g
       aria-label="Duetto"
       style="font-style:normal;font-variant:normal;font-weight:normal;font-stretch:normal;font-size:21.21874619px;line-height:1.25;font-family:Sawasdee;-inkscape-font-specification:'Sawasdee, Normal';font-variant-ligatures:normal;font-variant-caps:normal;font-variant-numeric:normal;font-feature-settings:normal;text-align:start;letter-spacing:0px;word-spacing:0px;writing-mode:lr-tb;text-anchor:start;fill:#78a8e2;fill-opacity:1;stroke:none;stroke-width:0.33154291"
       id="text4649">
      <path
         d="m 23.299205,189.57852 h 2.175751 q 1.896011,0 3.4812,-0.89102 1.59555,-0.89102 2.517654,-2.45549 0.932465,-1.56447 0.932465,-3.43976 0,-1.89601 -0.932465,-3.46048 -0.922104,-1.57482 -2.517654,-2.46585 -1.585189,-0.89102 -3.4812,-0.89102 h -2.175751 z m -0.932464,0.93247 v -15.46855 h 3.108215 q 1.59555,0 3.04605,0.60092 1.4505,0.60092 2.507293,1.63699 1.056793,1.02571 1.678436,2.46585 0.621643,1.44014 0.621643,3.04605 0,2.13431 -1.056793,3.91635 -1.056793,1.77169 -2.859557,2.78704 -1.802765,1.01535 -3.937072,1.01535 z"
         style="font-style:normal;font-variant:normal;font-weight:normal;font-stretch:normal;font-size:21.21874619px;font-family:Sawasdee;-inkscape-font-specification:'Sawasdee, Normal';font-variant-ligatures:normal;font-variant-caps:normal;font-variant-numeric:normal;font-feature-settings:normal;text-align:start;writing-mode:lr-tb;text-anchor:start;fill:#78a8e2;fill-opacity:1;stroke-width:0.33154291"
         id="path4669"
         inkscape:connector-curvature="0" />
      <path
         d="m 36.332986,180.00522 h 0.932464 v 6.49617 q 0,1.35725 0.818497,2.30008 0.818496,0.94282 1.999618,0.94282 1.191482,0 2.051421,-0.94282 0.870301,-0.95319 0.870301,-2.30008 v -6.49617 h 0.932464 v 6.49617 q 0,1.70952 -1.108597,2.94244 -1.108596,1.22257 -2.704146,1.22257 -1.58519,0 -2.693787,-1.22257 -1.098235,-1.23292 -1.098235,-2.94244 z"
         style="font-style:normal;font-variant:normal;font-weight:normal;font-stretch:normal;font-size:21.21874619px;font-family:Sawasdee;-inkscape-font-specification:'Sawasdee, Normal';font-variant-ligatures:normal;font-variant-caps:normal;font-variant-numeric:normal;font-feature-settings:normal;text-align:start;writing-mode:lr-tb;text-anchor:start;fill:#78a8e2;fill-opacity:1;stroke-width:0.33154291"
         id="path4671"
         inkscape:connector-curvature="0" />
      <path
         d="m 47.95771,184.36708 h 7.635847 q -0.2901,-1.56447 -1.367614,-2.57982 -1.077514,-1.01535 -2.46585,-1.01535 -1.377976,0 -2.45549,1.01535 -1.067154,1.01535 -1.346893,2.57982 z m 8.651198,0.88066 H 47.81266 q 0,1.85457 1.1604,3.14966 1.1604,1.29509 2.74559,1.29509 1.046432,0 2.051421,-0.55948 1.00499,-0.55948 1.533386,-1.5023 l 0.818497,0.46623 q -0.632004,1.12932 -1.864929,1.85457 -1.232925,0.71489 -2.538375,0.71489 -1.315811,0 -2.424408,-0.73561 -1.098236,-0.73561 -1.730239,-1.9789 -0.621643,-1.25365 -0.621643,-2.70415 0,-1.44014 0.632003,-2.68342 0.642365,-1.24329 1.750961,-1.9789 1.118958,-0.74597 2.434769,-0.74597 1.243286,0 2.310439,0.67345 1.077515,0.66308 1.740601,1.7924 0.663085,1.12932 0.777053,2.47621 z"
         style="font-style:normal;font-variant:normal;font-weight:normal;font-stretch:normal;font-size:21.21874619px;font-family:Sawasdee;-inkscape-font-specification:'Sawasdee, Normal';font-variant-ligatures:normal;font-variant-caps:normal;font-variant-numeric:normal;font-feature-settings:normal;text-align:start;writing-mode:lr-tb;text-anchor:start;fill:#78a8e2;fill-opacity:1;stroke-width:0.33154291"
         id="path4673"
         inkscape:connector-curvature="0" />
      <path
         d="m 60.514896,190.51099 h -0.932465 v -9.58367 h -0.922103 v -0.9221 h 0.922103 v -2.48657 h 0.932465 v 2.48657 h 2.901 l -0.310821,0.9221 h -2.590179 z"
         style="font-style:normal;font-variant:normal;font-weight:normal;font-stretch:normal;font-size:21.21874619px;font-family:Sawasdee;-inkscape-font-specification:'Sawasdee, Normal';font-variant-ligatures:normal;font-variant-caps:normal;font-variant-numeric:normal;font-feature-settings:normal;text-align:start;writing-mode:lr-tb;text-anchor:start;fill:#78a8e2;fill-opacity:1;stroke-width:0.33154291"
         id="path4675"
         inkscape:connector-curvature="0" />
      <path
         d="m 66.234012,190.51099 h -0.932464 v -9.58367 h -0.922104 v -0.9221 h 0.922104 v -2.48657 h 0.932464 v 2.48657 h 2.901001 l -0.310822,0.9221 h -2.590179 z"
         style="font-style:normal;font-variant:normal;font-weight:normal;font-stretch:normal;font-size:21.21874619px;font-family:Sawasdee;-inkscape-font-specification:'Sawasdee, Normal';font-variant-ligatures:normal;font-variant-caps:normal;font-variant-numeric:normal;font-feature-settings:normal;text-align:start;writing-mode:lr-tb;text-anchor:start;fill:#78a8e2;fill-opacity:1;stroke-width:0.33154291"
         id="path4677"
         inkscape:connector-curvature="0" />
      <path
         d="m 75.942004,179.83945 q 1.087875,0 2.082504,0.42479 0.994629,0.42479 1.719879,1.15004 0.72525,0.72525 1.150039,1.73024 0.42479,1.00499 0.42479,2.10322 0,1.1086 -0.42479,2.11359 -0.424789,1.00499 -1.150039,1.73024 -0.72525,0.71489 -1.719879,1.15004 -0.994629,0.42479 -2.082504,0.42479 -2.227554,0 -3.802383,-1.58519 -1.574829,-1.58519 -1.574829,-3.83347 0,-1.47122 0.71489,-2.7145 0.72525,-1.25365 1.958175,-1.96854 1.243286,-0.72525 2.704147,-0.72525 z m -4.455108,5.40829 q 0,1.85457 1.30545,3.18074 1.315811,1.31581 3.170379,1.31581 1.854569,0 3.160019,-1.31581 1.315811,-1.32617 1.315811,-3.18074 0,-1.8442 -1.315811,-3.16002 -1.30545,-1.31581 -3.160019,-1.31581 -1.854568,0 -3.170379,1.31581 -1.30545,1.31582 -1.30545,3.16002 z"
         style="font-style:normal;font-variant:normal;font-weight:normal;font-stretch:normal;font-size:21.21874619px;font-family:Sawasdee;-inkscape-font-specification:'Sawasdee, Normal';font-variant-ligatures:normal;font-variant-caps:normal;font-variant-numeric:normal;font-feature-settings:normal;text-align:start;writing-mode:lr-tb;text-anchor:start;fill:#78a8e2;fill-opacity:1;stroke-width:0.33154291"
         id="path4679"
         inkscape:connector-curvature="0" />
    </g>
  </g>
  <g
     inkscape:groupmode="layer"
     id="layer2"
     inkscape:label="components"
     style="display:none">
    <circle
       style="opacity:1;vector-effect:none;fill:#0000ff;fill-opacity:1;stroke:#0000ff;stroke-width:0.50270832;stroke-linecap:butt;stroke-linejoin:miter;stroke-miterlimit:4;stroke-dasharray:none;stroke-dashoffset:0;stroke-opacity:1"
       id="path4685"
       cx="88.257446"
       cy="58.196426"
       r="4.1577382"
       inkscape:label="out1" />
    <circle
       style="opacity:1;vector-effect:none;fill:#ff0000;fill-opacity:1;stroke:#ff0000;stroke-width:0.50270832;stroke-linecap:butt;stroke-linejoin:miter;stroke-miterlimit:4;stroke-dasharray:none;stroke-dashoffset:0;stroke-opacity:1"
       id="path4685-5"
       cx="13.214685"
       cy="99.828751"
       r="4.1577382"
       inkscape:label="note00" />
    <circle
       style="opacity:1;vector-effect:none;fill:#ff0000;fill-opacity:1;stroke:#ff0000;stroke-width:0.50270832;stroke-linecap:butt;stroke-linejoin:miter;stroke-miterlimit:4;stroke-dasharray:none;stroke-dashoffset:0;stroke-opacity:1"
       id="path4685-7"
       cx="13.214685"
       cy="112.49845"
       r="4.1577382"
       inkscape:label="note05" />
    <circle
       style="opacity:1;vector-effect:none;fill:#ff0000;fill-opacity:1;stroke:#ff0000;stroke-width:0.50270832;stroke-linecap:butt;stroke-linejoin:miter;stroke-miterlimit:4;stroke-dasharray:none;stroke-dashoffset:0;stroke-opacity:1"
       id="path4685-6"
       cx="26.829519"
       cy="99.828751"
       r="4.1577382"
       inkscape:label="note01" />
    <circle
       style="opacity:1;vector-effect:none;fill:#ff0000;fill-opacity:1;stroke:#ff0000;stroke-width:0.50270832;stroke-linecap:butt;stroke-linejoin:miter;stroke-miterlimit:4;stroke-dasharray:none;stroke-dashoffset:0;stroke-opacity:1"
       id="path4685-74"
       cx="26.829519"
       cy="112.49845"
       r="4.1577382"
       inkscape:label="note06" />
    <circle
       style="opacity:1;vector-effect:none;fill:#ff0000;fill-opacity:1;stroke:#ff0000;stroke-width:0.50270832;stroke-linecap:butt;stroke-linejoin:miter;stroke-miterlimit:4;stroke-dasharray:none;stroke-dashoffset:0;stroke-opacity:1"
       id="path4685-2"
       cx="40.444355"
       cy="99.828751"
       r="4.1577382"
       inkscape:label="note02" />
    <circle
       style="opacity:1;vector-effect:none;fill:#ff0000;fill-opacity:1;stroke:#ff0000;stroke-width:0.50270832;stroke-linecap:butt;stroke-linejoin:miter;stroke-miterlimit:4;stroke-dasharray:none;stroke-dashoffset:0;stroke-opacity:1"
       id="path4685-11"
       cx="40.444355"
       cy="112.49845"
       r="4.1577382"
       inkscape:label="note07" />
    <circle
       style="opacity:1;vector-effect:none;fill:#ff0000;fill-opacity:1;stroke:#ff0000;stroke-width:0.50270832;stroke-linecap:butt;stroke-linejoin:miter;stroke-miterlimit:4;stroke-dasharray:none;stroke-dashoffset:0;stroke-opacity:1"
       id="path4685-59"
       cx="54.059189"
       cy="99.828751"
       r="4.1577382"
       inkscape:label="note03" />
    <circle
       style="opacity:1;vector-effect:none;fill:#ff0000;fill-opacity:1;stroke:#ff0000;stroke-width:0.50270832;stroke-linecap:butt;stroke-linejoin:miter;stroke-miterlimit:4;stroke-dasharray:none;stroke-dashoffset:0;stroke-opacity:1"
       id="path4685-9"
       cx="54.059189"
       cy="112.49845"
       r="4.1577382"
       inkscape:label="note08" />
    <circle
       style="opacity:1;vector-effect:none;fill:#ff0000;fill-opacity:1;stroke:#ff0000;stroke-width:0.50270832;stroke-linecap:butt;stroke-linejoin:miter;stroke-miterlimit:4;stroke-dasharray:none;stroke-dashoffset:0;stroke-opacity:1"
       id="path4685-1"
       cx="67.674019"
       cy="99.828751"
       r="4.1577382"
       inkscape:label="note04" />
    <circle
       style="opacity:1;vector-effect:none;fill:#ff0000;fill-opacity:1;stroke:#ff0000;stroke-width:0.50270832;stroke-linecap:butt;stroke-linejoin:miter;stroke-miterlimit:4;stroke-dasharray:none;stroke-dashoffset:0;stroke-opacity:1"
       id="path4685-13"
       cx="67.674019"
       cy="112.49845"
       r="4.1577382"
       inkscape:label="note09" />
    <circle
       inkscape:label="light01"
       style="display:inline;opacity:1;vector-effect:none;fill:#ff00ff;fill-opacity:1;stroke:#ff00ff;stroke-width:0.329;stroke-linecap:butt;stroke-linejoin:miter;stroke-miterlimit:4;stroke-dasharray:none;stroke-dashoffset:0;stroke-opacity:1"
       id="path4778-7"
       cx="74.693413"
       cy="7.4696631"
       r="2.2206101"
       inkscape:transform-center-y="-8.6862586"
       transform="rotate(45.000001)"
       inkscape:transform-center-x="-8.6862578" />
    <circle
       inkscape:label="light00"
       style="display:inline;opacity:1;vector-effect:none;fill:#ff00ff;fill-opacity:1;stroke:#ff00ff;stroke-width:0.329;stroke-linecap:butt;stroke-linejoin:miter;stroke-miterlimit:4;stroke-dasharray:none;stroke-dashoffset:0;stroke-opacity:1"
       id="path4778-9"
       cx="37.277901"
       cy="53.849701"
       r="2.2206101"
       inkscape:transform-center-y="-12.284224" />
    <circle
       inkscape:label="light07"
       style="display:inline;opacity:1;vector-effect:none;fill:#ff00ff;fill-opacity:1;stroke:#ff00ff;stroke-width:0.329;stroke-linecap:butt;stroke-linejoin:miter;stroke-miterlimit:4;stroke-dasharray:none;stroke-dashoffset:0;stroke-opacity:1"
       id="path4778-3"
       cx="-21.974457"
       cy="60.188591"
       r="2.2206101"
       inkscape:transform-center-y="-8.6862632"
       transform="rotate(-44.999967)"
       inkscape:transform-center-x="8.6862534" />
    <circle
       inkscape:label="light06"
       style="display:inline;opacity:1;vector-effect:none;fill:#ff00ff;fill-opacity:1;stroke:#ff00ff;stroke-width:0.329;stroke-linecap:butt;stroke-linejoin:miter;stroke-miterlimit:4;stroke-dasharray:none;stroke-dashoffset:0;stroke-opacity:1"
       id="path4778-8"
       cx="-68.354538"
       cy="22.773064"
       r="2.2206101"
       transform="rotate(-90.000003)"
       inkscape:transform-center-x="12.284224" />
    <circle
       inkscape:label="light05"
       style="display:inline;opacity:1;vector-effect:none;fill:#ff00ff;fill-opacity:1;stroke:#ff00ff;stroke-width:0.329;stroke-linecap:butt;stroke-linejoin:miter;stroke-miterlimit:4;stroke-dasharray:none;stroke-dashoffset:0;stroke-opacity:1"
       id="path4778-84"
       cx="-74.693398"
       cy="-36.47937"
       r="2.2206101"
       inkscape:transform-center-y="8.6862614"
       transform="rotate(-135.00003)"
       inkscape:transform-center-x="8.6862511" />
    <circle
       inkscape:label="light04"
       style="display:inline;opacity:1;vector-effect:none;fill:#ff00ff;fill-opacity:1;stroke:#ff00ff;stroke-width:0.329;stroke-linecap:butt;stroke-linejoin:miter;stroke-miterlimit:4;stroke-dasharray:none;stroke-dashoffset:0;stroke-opacity:1"
       id="path4778-0"
       cx="-37.277905"
       cy="-82.859367"
       r="2.2206101"
       inkscape:transform-center-y="12.284222"
       transform="scale(-1)"
       inkscape:transform-center-x="-3.8146973e-06" />
    <circle
       inkscape:label="light03"
       style="display:inline;opacity:1;vector-effect:none;fill:#ff00ff;fill-opacity:1;stroke:#ff00ff;stroke-width:0.329;stroke-linecap:butt;stroke-linejoin:miter;stroke-miterlimit:4;stroke-dasharray:none;stroke-dashoffset:0;stroke-opacity:1"
       id="path4778-08"
       cx="21.974463"
       cy="-89.198257"
       r="2.2206101"
       inkscape:transform-center-y="8.6862644"
       transform="rotate(135.00003)"
       inkscape:transform-center-x="-8.6862527" />
    <circle
       inkscape:label="light02"
       style="display:inline;opacity:1;vector-effect:none;fill:#ff00ff;fill-opacity:1;stroke:#ff00ff;stroke-width:0.329;stroke-linecap:butt;stroke-linejoin:miter;stroke-miterlimit:4;stroke-dasharray:none;stroke-dashoffset:0;stroke-opacity:1"
       id="path4778-08-6"
       cx="68.354538"
       cy="-51.782738"
       r="2.2206101"
       inkscape:transform-center-y="2.266045e-06"
       transform="rotate(90.000003)"
       inkscape:transform-center-x="-12.284224" />
  </g>
</svg>
